<svg id="visual" viewBox="0 0 960 540" width="960" height="540" xmlns="http://www.w3.org/2000/svg" xmlns:xlink="http://www.w3.org/1999/xlink" version="1.1"><rect x="0" y="0" width="960" height="540" fill="#001220"></rect><defs><linearGradient id="grad1_0" x1="43.8%" y1="0%" x2="100%" y2="100%"><stop offset="14.444444444444446%" stop-color="#0066ff" stop-opacity="1"></stop><stop offset="85.55555555555554%" stop-color="#0066ff" stop-opacity="1"></stop></linearGradient></defs><defs><linearGradient id="grad1_1" x1="43.8%" y1="0%" x2="100%" y2="100%"><stop offset="14.444444444444446%" stop-color="#0066ff" stop-opacity="1"></stop><stop offset="85.55555555555554%" stop-color="#001220" stop-opacity="1"></stop></linearGradient></defs><defs><linearGradient id="grad2_0" x1="0%" y1="0%" x2="56.3%" y2="100%"><stop offset="14.444444444444446%" stop-color="#0066ff" stop-opacity="1"></stop><stop offset="85.55555555555554%" stop-color="#0066ff" stop-opacity="1"></stop></linearGradient></defs><defs><linearGradient id="grad2_1" x1="0%" y1="0%" x2="56.3%" y2="100%"><stop offset="14.444444444444446%" stop-color="#001220" stop-opacity="1"></stop><stop offset="85.55555555555554%" stop-color="#0066ff" stop-opacity="1"></stop></linearGradient></defs><g transform="translate(960, 0)"><path d="M0 486C-52.1 438.7 -104.2 391.4 -148.5 358.5C-192.8 325.6 -229.4 307.1 -284.3 284.3C-339.1 261.4 -412.3 234.1 -449 186C-485.7 137.9 -485.8 68.9 -486 0L0 0Z" fill="#00408b"></path><path d="M0 243C-26 219.3 -52.1 195.7 -74.2 179.2C-96.4 162.8 -114.7 153.6 -142.1 142.1C-169.6 130.7 -206.2 117 -224.5 93C-242.8 68.9 -242.9 34.5 -243 0L0 0Z" fill="#0066ff"></path></g><g transform="translate(0, 540)"><path d="M0 -486C67.5 -483.2 135 -480.4 186 -449C236.9 -417.7 271.4 -357.8 309 -309C346.7 -260.2 387.6 -222.6 417.6 -173C447.6 -123.3 466.8 -61.7 486 0L0 0Z" fill="#00408b"></path><path d="M0 -243C33.8 -241.6 67.5 -240.2 93 -224.5C118.5 -208.8 135.7 -178.9 154.5 -154.5C173.3 -130.1 193.8 -111.3 208.8 -86.5C223.8 -61.7 233.4 -30.8 243 0L0 0Z" fill="#0066ff"></path></g></svg>